<mxfile host="app.diagrams.net" modified="2024-07-13T12:00:01.206Z" agent="Mozilla/5.0 (Windows NT 10.0; Win64; x64) AppleWebKit/537.36 (KHTML, like Gecko) Chrome/126.0.0.0 Safari/537.36 Edg/126.0.0.0" version="24.6.5" etag="zw2Z7u_-dn_vpNm5-i1H" type="github">
  <diagram name="Page-1" id="kp_l3SUMhfLJMVP8o2nj">
    <mxGraphModel>
      <root>
        <mxCell id="0" />
        <mxCell id="1" parent="0" />
      </root>
    </mxGraphModel>
  </diagram>
</mxfile>
